HIERARCHY
ROOT Hips
{
	OFFSET 0.000000 0.000000 0.000000
	CHANNELS 6 Xposition Yposition Zposition Zrotation Yrotation Xrotation 
	JOINT LeftUpLeg_virtual
	{
		OFFSET 0.000000 0.000000 0.000000
		CHANNELS 3 Zrotation Yrotation Xrotation
		JOINT LeftUpLeg
		{
			OFFSET 8.479694 -4.795517 -0.379053
			CHANNELS 3 Zrotation Yrotation Xrotation
			JOINT LeftLeg
			{
				OFFSET 0.485052 -32.551468 0.112863
				CHANNELS 3 Zrotation Yrotation Xrotation
				JOINT LeftFoot
				{
					OFFSET 0.438033 -32.635670 -3.012641
					CHANNELS 3 Zrotation Yrotation Xrotation
					JOINT LeftToeBase
					{
						OFFSET 0.970169 -13.225353 11.864223
						CHANNELS 3 Zrotation Yrotation Xrotation
						End Site
						{
							OFFSET 0.000000 0.000000 0.000000
						}
					}
				}
			}
		}
	}
	JOINT RightUpLeg_virtual
	{
		OFFSET 0.000000 0.000000 0.000000
		CHANNELS 3 Zrotation Yrotation Xrotation
		JOINT RightUpLeg
		{
			OFFSET -8.479694 -4.795517 -0.379053
			CHANNELS 3 Zrotation Yrotation Xrotation
			JOINT RightLeg
			{
				OFFSET -0.484100 -32.551483 0.112903
				CHANNELS 3 Zrotation Yrotation Xrotation
				JOINT RightFoot
				{
					OFFSET -0.438985 -32.635651 -3.012681
					CHANNELS 3 Zrotation Yrotation Xrotation
					JOINT RightToeBase
					{
						OFFSET -0.970169 -13.225354 11.864223
						CHANNELS 3 Zrotation Yrotation Xrotation
						End Site
						{
							OFFSET 0.000000 0.000000 0.000000
						}
					}
				}
			}
		}
	}
	JOINT Spine_virtual
	{
		OFFSET 0.000000 0.000000 0.000000
		CHANNELS 3 Zrotation Yrotation Xrotation
		JOINT Spine
		{
			OFFSET 0.000000 7.722015 1.166203
			CHANNELS 3 Zrotation Yrotation Xrotation
			JOINT Spine1
			{
				OFFSET 0.000000 12.024086 0.248766
				CHANNELS 3 Zrotation Yrotation Xrotation
				JOINT Spine2
				{
					OFFSET -0.000000 11.503036 -0.491240
					CHANNELS 3 Zrotation Yrotation Xrotation
					JOINT Neck_virtual
					{
						OFFSET 0.000000 0.000000 0.000000
						CHANNELS 3 Zrotation Yrotation Xrotation
						JOINT Neck
						{
							OFFSET 0.000000 18.430687 -3.123054
							CHANNELS 3 Zrotation Yrotation Xrotation
							JOINT Head
							{
								OFFSET -0.000000 9.051071 1.034021
								CHANNELS 3 Zrotation Yrotation Xrotation
								End Site
								{
									OFFSET 0.000000 0.000000 0.000000
								}
							}
						}
					}
					JOINT LeftShoulder_virtual
					{
						OFFSET 0.000000 0.000000 0.000000
						CHANNELS 3 Zrotation Yrotation Xrotation
						JOINT LeftShoulder
						{
							OFFSET 6.197824 13.665230 -4.064723
							CHANNELS 3 Zrotation Yrotation Xrotation
							JOINT LeftArm
							{
								OFFSET 7.778132 -0.187073 -1.709282
								CHANNELS 3 Zrotation Yrotation Xrotation
								JOINT LeftForeArm
								{
									OFFSET 21.954697 0.000000 -2.041093
									CHANNELS 3 Zrotation Yrotation Xrotation
									JOINT LeftHand
									{
										OFFSET 22.992908 0.000000 -0.870901
										CHANNELS 3 Zrotation Yrotation Xrotation
										End Site
										{
											OFFSET 0.000000 0.000000 0.000000
										}
									}
								}
							}
						}
					}
					JOINT RightShoulder_virtual
					{
						OFFSET 0.000000 0.000000 0.000000
						CHANNELS 3 Zrotation Yrotation Xrotation
						JOINT RightShoulder
						{
							OFFSET -6.197824 13.665230 -4.064723
							CHANNELS 3 Zrotation Yrotation Xrotation
							JOINT RightArm
							{
								OFFSET -7.778132 -0.187073 -1.709282
								CHANNELS 3 Zrotation Yrotation Xrotation
								JOINT RightForeArm
								{
									OFFSET -21.954697 0.000000 -2.041093
									CHANNELS 3 Zrotation Yrotation Xrotation
									JOINT RightHand
									{
										OFFSET -22.992908 0.000000 -0.870901
										CHANNELS 3 Zrotation Yrotation Xrotation
										End Site
										{
											OFFSET 0.000000 0.000000 0.000000
										}
									}
								}
							}
						}
					}
				}
			}
		}
	}
}
MOTION
Frames: 14
Frame Time: 0.033333
-5.379946 56.500771 -15.038454 -179.355918 34.436212 -179.676555 2.674595 -6.072890 -7.177386 -0.090372 8.539353 -62.642923 11.071821 -1.185297 90.641432 1.894987 -15.412525 -26.419272 0.000000 0.000000 0.000000 4.400839 -4.237303 -4.700070 -1.096840 -9.636103 -74.679383 5.283585 4.413772 96.977512 3.541483 3.938541 -16.056781 0.000000 0.000000 0.000000 -0.776631 -1.093089 -9.467925 4.083749 3.497573 0.759637 -2.145323 -0.672484 12.739478 -0.053129 -0.026392 0.015280 -2.552863 -0.013890 14.559175 -1.622610 -7.223059 3.157874 0.000000 0.000000 0.000000 -0.332760 0.173442 10.644484 -1.174537 -4.868281 10.103728 -58.777937 -7.034868 8.635906 -32.480712 -88.258748 54.222652 0.000000 0.000000 0.000000 -4.916634 2.184163 9.626474 27.074694 10.624241 4.598507 47.397876 45.222894 3.700071 -173.287637 65.000738 -175.518527 0.000000 0.000000 0.000000 
-5.398188 56.504078 -15.031226 -179.289788 34.468789 -179.608307 2.699363 -6.157238 -7.218607 -0.117399 8.558215 -62.617931 11.063268 -1.268573 90.594987 1.833268 -15.330049 -26.393787 0.000000 0.000000 0.000000 4.406857 -4.290198 -4.774194 -1.040595 -9.614880 -74.575311 5.294104 4.379548 96.902359 3.546495 3.954982 -16.107878 0.000000 0.000000 0.000000 -0.719084 -1.227756 -9.587158 4.207119 3.608266 0.628758 -2.200706 -0.768857 12.724262 -0.088414 0.096279 0.002327 -2.496988 -0.207837 14.581110 -2.065017 -6.952629 3.583033 0.000000 0.000000 0.000000 -0.283719 0.115216 10.658312 -0.687818 -4.673262 10.151263 -58.151978 -10.720179 8.284862 -46.657261 -88.429155 68.138951 0.000000 0.000000 0.000000 -4.933476 2.068217 9.688677 27.374377 10.880032 4.931285 46.899374 43.099921 2.893783 -172.646979 65.103983 -175.419257 0.000000 0.000000 0.000000 
-5.400677 56.520016 -15.024677 -179.369401 34.527706 -179.671719 2.705532 -6.284626 -7.243810 -0.172272 8.569771 -62.549445 11.081015 -1.322135 90.535544 1.788403 -15.222118 -26.402805 0.000000 0.000000 0.000000 4.396677 -4.380829 -4.853444 -1.012655 -9.614091 -74.478363 5.331614 4.403821 96.820008 3.549781 3.974436 -16.188233 0.000000 0.000000 0.000000 -0.790741 -1.320349 -9.641317 4.254751 3.827481 0.530978 -2.198426 -0.804015 12.630634 -0.059554 -0.001240 -0.019446 -2.629103 -0.245995 14.611769 -2.750790 -6.442408 3.958990 0.000000 0.000000 0.000000 -0.350587 0.038689 10.680111 -0.164345 -4.520432 9.994655 -57.302712 -15.423651 7.622137 -68.626257 -88.525276 89.831481 0.000000 0.000000 0.000000 -4.870029 2.021564 9.725927 27.775598 11.130988 5.496274 46.585524 40.633554 2.398104 -172.351313 65.214202 -175.668395 0.000000 0.000000 0.000000 
-5.396444 56.545338 -15.018245 -179.377747 34.589021 -179.661733 2.735791 -6.407150 -7.272429 -0.225344 8.596977 -62.471444 11.089208 -1.396793 90.464250 1.745129 -15.119529 -26.416759 0.000000 0.000000 0.000000 4.413798 -4.472980 -4.908024 -0.972198 -9.625852 -74.358699 5.352033 4.378369 96.739371 3.551677 3.994178 -16.233401 0.000000 0.000000 0.000000 -0.806457 -1.422794 -9.716805 4.248285 3.945981 0.420251 -2.283251 -0.877303 12.596991 -0.052434 0.024872 -0.014983 -2.739367 -0.383464 14.588020 -3.451544 -5.931150 4.349514 0.000000 0.000000 0.000000 -0.407233 0.004565 10.641604 0.439051 -4.436488 9.871447 -56.255941 -20.964245 6.482055 -92.143808 -88.298309 113.046399 0.000000 0.000000 0.000000 -4.937901 1.969686 9.757373 28.355908 11.477539 5.919602 46.391529 37.851689 2.236235 -172.073748 65.502108 -175.907110 0.000000 0.000000 0.000000 
-5.384744 56.571892 -15.016360 -179.345536 34.639878 -179.698561 2.772352 -6.457460 -7.248253 -0.273236 8.648158 -62.334936 11.112618 -1.478424 90.402499 1.676914 -15.069617 -26.419494 0.000000 0.000000 0.000000 4.476075 -4.551449 -4.930430 -0.948189 -9.601210 -74.225571 5.370506 4.375509 96.665106 3.543136 4.007134 -16.339944 0.000000 0.000000 0.000000 -0.773932 -1.484293 -9.785732 4.219687 4.072501 0.348713 -2.411027 -0.910393 12.583628 -0.057230 -0.012445 0.008913 -2.782166 -0.280045 14.519056 -4.045798 -5.361839 4.769061 0.000000 0.000000 0.000000 -0.472809 -0.053842 10.521666 1.038920 -4.368667 9.693692 -55.026453 -26.759549 5.008070 -108.230788 -87.899036 128.849470 0.000000 0.000000 0.000000 -4.989281 1.852466 9.791787 29.073482 11.868982 6.431942 46.183270 35.410047 2.588653 -171.929494 65.733440 -176.202789 0.000000 0.000000 0.000000 
-5.365945 56.588825 -15.009704 -179.418469 34.651462 -179.759268 2.788226 -6.501877 -7.287591 -0.346943 8.749419 -62.214615 11.110499 -1.510003 90.318467 1.612031 -15.052671 -26.476916 0.000000 0.000000 0.000000 4.490974 -4.615391 -4.973275 -0.944867 -9.578192 -74.165582 5.395710 4.414471 96.640763 3.526024 3.993691 -16.417680 0.000000 0.000000 0.000000 -0.827507 -1.579221 -9.871403 4.134812 4.131979 0.283814 -2.500600 -0.996670 12.558870 -0.022029 -0.014009 -0.004506 -2.959165 -0.340135 14.545981 -4.822232 -4.857020 5.133202 0.000000 0.000000 0.000000 -0.583840 -0.066739 10.496578 1.528389 -4.244182 9.570567 -53.673375 -32.155028 3.259119 -119.019980 -87.310520 139.375051 0.000000 0.000000 0.000000 -5.081614 1.871806 9.822264 29.708533 12.304027 6.936093 45.824521 33.648913 3.209275 -172.253573 65.905725 -176.845974 0.000000 0.000000 0.000000 
-5.354887 56.595234 -14.991752 -179.427854 34.614074 -179.793064 2.819295 -6.500452 -7.362854 -0.404545 8.899899 -62.095101 11.090680 -1.536925 90.219156 1.537497 -15.089679 -26.563068 0.000000 0.000000 0.000000 4.530863 -4.677094 -5.010077 -0.969226 -9.500038 -74.087151 5.404444 4.448583 96.638550 3.499297 3.953312 -16.481982 0.000000 0.000000 0.000000 -0.813056 -1.613048 -9.994590 4.074278 4.222807 0.256782 -2.580071 -1.023782 12.596814 -0.015515 0.003756 0.006711 -3.058134 -0.399722 14.605139 -5.455113 -4.276264 5.554630 0.000000 0.000000 0.000000 -0.665852 -0.139831 10.490419 1.907969 -4.220376 9.462469 -52.384163 -36.639781 1.691285 -127.348126 -86.902819 147.480450 0.000000 0.000000 0.000000 -5.111505 1.690301 9.885332 30.252848 12.887417 7.284141 45.356295 32.667893 4.222015 -172.886582 66.028074 -177.676183 0.000000 0.000000 0.000000 
-5.341868 56.587624 -14.971871 -179.428182 34.518659 -179.808869 2.848523 -6.476247 -7.462765 -0.458334 9.065281 -61.972635 11.060509 -1.551465 90.156380 1.462916 -15.160426 -26.662921 0.000000 0.000000 0.000000 4.519903 -4.679657 -5.039535 -1.008758 -9.333751 -74.002327 5.401744 4.513196 96.678220 3.438979 3.850935 -16.517131 0.000000 0.000000 0.000000 -0.786509 -1.679181 -10.118953 4.012332 4.297741 0.258532 -2.651114 -1.068728 12.655658 -0.046600 -0.043808 -0.014611 -3.127726 -0.373313 14.727640 -6.023207 -3.666888 5.953877 0.000000 0.000000 0.000000 -0.710345 -0.142877 10.544093 2.222419 -4.112707 9.368667 -51.456589 -39.933630 0.496777 -132.596539 -86.584020 152.545418 0.000000 0.000000 0.000000 -5.164870 1.899686 9.891756 30.747749 13.243113 7.481690 44.799368 32.466170 5.487273 -173.569013 66.063509 -178.417532 0.000000 0.000000 0.000000 
-5.333972 56.570885 -14.958641 -179.351834 34.395825 -179.751728 2.896927 -6.442913 -7.587130 -0.495723 9.231270 -61.873058 11.020985 -1.585160 90.142617 1.404794 -15.233111 -26.757941 0.000000 0.000000 0.000000 4.499422 -4.695380 -5.080766 -1.000970 -9.223676 -73.965191 5.397017 4.572188 96.732896 3.391885 3.744898 -16.574938 0.000000 0.000000 0.000000 -0.694711 -1.761179 -10.262374 3.953202 4.320701 0.280550 -2.720812 -0.964063 12.783523 -0.065233 0.037766 0.001838 -3.135810 -0.507051 14.859152 -6.415315 -3.214512 6.386667 0.000000 0.000000 0.000000 -0.751563 -0.113180 10.669944 2.449838 -4.075561 9.281457 -51.004827 -42.224216 -0.297544 -135.659660 -86.240420 155.459395 0.000000 0.000000 0.000000 -5.222552 1.720997 10.057711 31.067184 13.792967 7.647836 44.271715 32.999321 6.800239 -174.576411 66.134700 -179.346834 0.000000 0.000000 0.000000 
-5.333246 56.546215 -14.951824 -179.367748 34.260082 -179.785059 2.921034 -6.454902 -7.678355 -0.555142 9.378173 -61.771227 10.988674 -1.590767 90.142788 1.361925 -15.302620 -26.821125 0.000000 0.000000 0.000000 4.482306 -4.746333 -5.129090 -1.004654 -9.147158 -73.894908 5.410532 4.638227 96.809073 3.384618 3.679585 -16.693225 0.000000 0.000000 0.000000 -0.665858 -1.784908 -10.374607 3.841477 4.554425 0.371217 -2.739676 -0.986263 12.939062 0.017452 -0.016346 0.009609 -3.237767 -0.411102 15.038719 -6.679636 -2.751778 6.835659 0.000000 0.000000 0.000000 -0.894243 -0.093301 10.854294 2.559147 -3.978487 9.206617 -50.877891 -43.588351 -0.768001 -137.775912 -86.077739 157.488125 0.000000 0.000000 0.000000 -5.262005 1.672377 10.185925 31.219709 14.199186 7.682135 43.904931 34.033446 8.070944 -175.642563 66.100447 179.787081 0.000000 0.000000 0.000000 
-5.342018 56.515511 -14.947096 -179.360385 34.051495 -179.767970 2.958862 -6.563906 -7.774878 -0.608449 9.463814 -61.722316 10.963097 -1.600505 90.167889 1.334941 -15.367721 -26.875073 0.000000 0.000000 0.000000 4.500272 -4.893651 -5.208579 -1.013514 -9.101532 -73.823847 5.421164 4.669872 96.858974 3.408512 3.640544 -16.805829 0.000000 0.000000 0.000000 -0.644755 -1.843131 -10.513702 3.714745 4.483922 0.474764 -2.764232 -0.875431 13.099056 -0.106308 0.008861 -0.006120 -3.195785 -0.192823 15.257517 -6.895347 -2.346960 7.204572 0.000000 0.000000 0.000000 -0.816329 -0.006507 11.024471 2.565220 -3.924974 9.129732 -51.179909 -44.188018 -0.979717 -141.222740 -85.965608 160.882715 0.000000 0.000000 0.000000 -5.243425 1.866705 10.364614 31.293577 14.462818 7.570016 43.658713 35.261125 9.284423 -176.811017 66.046795 178.889607 0.000000 0.000000 0.000000 
-5.371073 56.477543 -14.940553 -179.382009 33.791534 -179.773461 2.985292 -6.763098 -7.866218 -0.688486 9.534027 -61.708512 10.943963 -1.594512 90.198454 1.322605 -15.427418 -26.906427 0.000000 0.000000 0.000000 4.509035 -5.068231 -5.301507 -1.055278 -9.082285 -73.806655 5.441582 4.721423 96.919503 3.435744 3.599698 -16.900121 0.000000 0.000000 0.000000 -0.609771 -2.098072 -10.638910 3.535437 4.978950 0.517531 -2.731356 -0.752355 13.373084 -0.033471 -0.101155 0.011700 -3.225390 -0.130308 15.566565 -6.982178 -1.976941 7.726237 0.000000 0.000000 0.000000 -0.888903 0.002181 11.301771 2.541608 -4.042622 8.984124 -51.467203 -44.524361 -1.261886 -142.679442 -85.880394 162.346152 0.000000 0.000000 0.000000 -5.220184 1.816424 10.551644 31.159473 14.653080 7.365949 43.732042 36.608605 10.326000 -177.746808 65.915547 178.323002 0.000000 0.000000 0.000000 
-5.412134 56.436028 -14.935101 -179.377351 33.501876 -179.721115 3.014603 -6.983701 -7.942933 -0.761673 9.553976 -61.753981 10.935181 -1.591570 90.238055 1.328910 -15.481126 -26.951616 0.000000 0.000000 0.000000 4.530748 -5.287876 -5.399892 -1.128447 -9.077304 -73.804449 5.459671 4.743150 96.957315 3.474853 3.581664 -17.004786 0.000000 0.000000 0.000000 -0.573984 -2.423347 -10.830294 3.352174 5.126765 0.719359 -2.726304 -0.731336 13.516887 -0.060109 -0.006595 -0.025462 -3.225710 -0.101833 15.866821 -7.127912 -1.628560 8.011309 0.000000 0.000000 0.000000 -0.923882 0.164536 11.575935 2.418459 -4.024822 8.930068 -51.938678 -44.604520 -1.372910 -146.849600 -85.740253 166.549915 0.000000 0.000000 0.000000 -5.176514 2.066291 10.803160 31.014472 14.757155 7.082667 43.774259 38.098631 11.197369 -178.480343 65.722594 177.979567 0.000000 0.000000 0.000000 
-5.465249 56.393715 -14.928907 -179.378007 33.203168 -179.793364 3.015453 -7.191014 -7.954243 -0.833075 9.541630 -61.764465 10.931805 -1.591626 90.260588 1.346340 -15.531075 -26.967270 0.000000 0.000000 0.000000 4.539722 -5.493820 -5.421367 -1.204146 -9.124706 -73.759384 5.482673 4.760567 97.011950 3.515951 3.575568 -17.079158 0.000000 0.000000 0.000000 -0.565871 -2.625167 -10.903717 3.139996 5.354108 0.875864 -2.726432 -0.610946 13.787213 -0.108626 -0.036776 -0.050425 -3.099375 0.190919 16.230389 -7.067524 -1.506205 8.492131 0.000000 0.000000 0.000000 -0.830174 0.308991 11.857225 2.392470 -4.131307 8.802216 -52.314461 -44.609594 -1.607615 -148.698682 -85.737630 168.503676 0.000000 0.000000 0.000000 -5.091419 2.223320 11.072392 30.688037 14.859746 6.818131 43.943637 39.480385 11.945423 -179.035569 65.607368 177.817691 0.000000 0.000000 0.000000 
